<?xml version="1.0" encoding="UTF-8"?>
<svg id="Layer_2" xmlns="http://www.w3.org/2000/svg" viewBox="0 0 303.4 50.4">
  <defs>
    <style>
      .cls-1 {
        fill: #9f3c2d;
      }

      .cls-2 {
        fill: #fff;
      }
    </style>
  </defs>
  <g id="Layer_1-2">
    <g>
      <path class="cls-2" d="M0,50.4V0h22.9c5.47,0,10.3,1.04,14.47,3.13,4.18,2.09,7.44,5.02,9.79,8.78,2.35,3.77,3.53,8.2,3.53,13.28s-1.18,9.52-3.53,13.28c-2.35,3.77-5.62,6.7-9.79,8.78s-9,3.13-14.47,3.13H0ZM11.74,40.9h10.58c3.36,0,6.28-.64,8.75-1.91,2.47-1.27,4.39-3.1,5.76-5.47s2.05-5.15,2.05-8.32-.68-6-2.05-8.35c-1.37-2.35-3.29-4.16-5.76-5.44-2.47-1.27-5.39-1.91-8.75-1.91h-10.58v31.39Z"/>
      <path class="cls-2" d="M59.47,50.4V0h21.53c7.01,0,12.46,1.62,16.34,4.86,3.89,3.24,5.83,7.69,5.83,13.36,0,3.79-.89,7.04-2.66,9.76-1.78,2.71-4.3,4.78-7.56,6.19-3.26,1.42-7.15,2.12-11.66,2.12h-15.41l5.33-5.04v19.15h-11.74ZM71.21,32.54l-5.33-5.54h14.76c3.55,0,6.24-.77,8.06-2.3,1.82-1.54,2.74-3.7,2.74-6.48s-.91-4.93-2.74-6.44c-1.83-1.51-4.51-2.27-8.06-2.27h-14.76l5.33-5.54v28.58ZM91.58,50.4l-12.67-18.29h12.53l12.67,18.29h-12.53Z"/>
      <path class="cls-2" d="M112.39,50.4V0h38.09v9.36h-26.5v31.68h27.43v9.36h-39.02ZM123.12,29.38v-9.14h24.26v9.14h-24.26Z"/>
      <path class="cls-2" d="M160.7,50.4V0h21.82c4.51,0,8.4.73,11.66,2.2,3.26,1.46,5.78,3.56,7.56,6.3,1.78,2.74,2.66,5.98,2.66,9.72s-.89,7.04-2.66,9.76c-1.78,2.71-4.3,4.81-7.56,6.3-3.26,1.49-7.15,2.23-11.66,2.23h-15.41l5.33-5.26v19.15h-11.74ZM172.44,32.54l-5.33-5.54h14.76c3.55,0,6.24-.77,8.06-2.3,1.82-1.54,2.74-3.7,2.74-6.48s-.91-4.93-2.74-6.44c-1.83-1.51-4.51-2.27-8.06-2.27h-14.76l5.33-5.54v28.58Z"/>
      <path class="cls-1" d="M203.54,50.4L225.93,0h11.52l22.61,50.4h-12.24l-18.5-44.5h4.68l-18.5,44.5h-11.95ZM214.84,39.6l2.95-8.86h26.06l3.02,8.86h-32.04Z"/>
      <path class="cls-2" d="M265.32,50.4V0h38.09v9.36h-26.35v41.04h-11.74ZM276.12,32.04v-9.36h24.19v9.36h-24.19Z"/>
    </g>
  </g>
</svg>
