<?xml version="1.0" encoding="UTF-8"?>
<svg id="Layer_2" xmlns="http://www.w3.org/2000/svg" viewBox="0 0 878.82 236.42">
    <defs>
        <style>
            .cls-1 {
            fill: #4f46e5;
            }
        </style>
    </defs>
    <g id="Layer_1-2">
        <g>
            <g>
                <rect class="cls-1" x="230.42" y="49.42" width="16.64" height="65.27"/>
                <polygon class="cls-1" points="267.19 114.69 251.24 114.69 251.24 49.42 265.52 49.42 290.97 90.52 290.29 49.42 306.24 49.42 306.24 114.69 291.75 114.69 266.5 75.06 267.19 114.69"/>
                <polygon class="cls-1" points="339.72 114.69 323.08 114.69 323.08 64.2 310.16 64.2 310.16 49.42 352.64 49.42 352.64 64.2 339.72 64.2 339.72 114.69"/>
                <polygon class="cls-1" points="392.77 114.69 356.56 114.69 356.56 49.42 392.77 49.42 392.77 64.2 372.51 64.2 372.51 74.18 392.18 74.18 392.18 88.96 372.51 88.96 372.51 99.92 392.77 99.92 392.77 114.69"/>
                <path class="cls-1" d="M412.64,114.69h-15.95V49.42h20.65c5.55,0,9.74.33,12.58.98,2.84.65,5.33,1.89,7.49,3.71,5.35,4.44,8.03,10.41,8.03,17.91,0,5.41-1.47,9.97-4.4,13.65-2.93,3.68-6.89,5.95-11.84,6.8l17.71,22.22h-19.08l-15.17-21.14v21.14ZM412.64,64.2v18.01h5.87c7.24,0,10.86-3.05,10.86-9.15s-3.56-8.86-10.67-8.86h-6.07Z"/>
                <polygon class="cls-1" points="466.77 114.69 450.81 114.69 450.81 49.42 465.1 49.42 490.55 90.52 489.86 49.42 505.82 49.42 505.82 114.69 491.33 114.69 466.08 75.06 466.77 114.69"/>
                <path class="cls-1" d="M556.91,114.69l-3.13-9.49h-22.7l-3.43,9.49h-17.91l26.13-65.27h13.21l25.93,65.27h-18.11ZM542.52,69.68l-6.85,22.31h13.6l-6.75-22.31Z"/>
                <polygon class="cls-1" points="604.57 114.69 587.93 114.69 587.93 64.2 575.01 64.2 575.01 49.42 617.49 49.42 617.49 64.2 604.57 64.2 604.57 114.69"/>
                <rect class="cls-1" x="621.41" y="49.42" width="16.64" height="65.27"/>
                <path class="cls-1" d="M676.22,114.69c-9.65,0-17.78-3.13-24.37-9.37-6.59-6.25-9.89-13.95-9.89-23.12s3.28-17.08,9.84-23.36c6.56-6.28,14.7-9.42,24.41-9.42s17.93,3.15,24.62,9.47c6.68,6.31,10.03,14.05,10.03,23.21s-3.35,16.89-10.03,23.17c-6.69,6.28-14.89,9.42-24.62,9.42M676.42,63.64c-5.09,0-9.33,1.75-12.72,5.25-3.39,3.5-5.09,7.84-5.09,13.03s1.71,9.73,5.14,13.26c3.43,3.53,7.72,5.29,12.87,5.29s9.13-1.77,12.52-5.29c3.39-3.53,5.09-7.86,5.09-12.98s-1.71-9.65-5.14-13.21c-3.43-3.57-7.65-5.34-12.67-5.34"/>
                <polygon class="cls-1" points="730.74 114.69 714.79 114.69 714.79 49.42 729.07 49.42 754.52 90.52 753.84 49.42 769.79 49.42 769.79 114.69 755.3 114.69 730.05 75.06 730.74 114.69"/>
                <path class="cls-1" d="M820.88,114.69l-3.13-9.49h-22.71l-3.43,9.49h-17.9l26.13-65.27h13.22l25.93,65.27h-18.11ZM806.49,69.68l-6.85,22.31h13.6l-6.75-22.31Z"/>
                <polygon class="cls-1" points="878.82 114.69 842.91 114.69 842.91 49.42 859.54 49.42 859.54 99.92 878.82 99.92 878.82 114.69"/>
                <path class="cls-1" d="M268.31,133.71c1.43,1.69,2.41,3.31,2.94,4.85.53,1.54.89,3.75,1.07,6.6h-15.06c-.53-3.73-2.35-5.6-5.44-5.6-1.43,0-2.66.44-3.7,1.31-1.04.88-1.56,1.92-1.56,3.15,0,2.33,1.69,4.25,5.08,5.77l7.31,3.24c4.99,2.22,8.54,4.6,10.65,7.17,2.11,2.57,3.16,5.77,3.16,9.62,0,5.6-1.83,9.97-5.48,13.11-3.65,3.15-8.75,4.72-15.29,4.72s-11.91-1.66-15.78-4.98c-3.86-3.32-5.79-7.81-5.79-13.46v-1.92h15.24c0,2.39.55,4.3,1.66,5.73,1.11,1.43,2.62,2.14,4.54,2.14,1.68,0,3.08-.54,4.22-1.62,1.14-1.08,1.71-2.4,1.71-3.98,0-2.51-2.12-4.6-6.35-6.29l-6.89-2.8c-2.86-1.22-5.25-2.59-7.15-4.11-4-3.15-5.99-7.17-5.99-12.06s2.02-8.92,6.06-12.24c4.04-3.32,8.97-4.98,14.8-4.98,6.95,0,12.3,2.22,16.04,6.64"/>
                <rect class="cls-1" x="276.76" y="127.06" width="15.15" height="60.59"/>
                <path class="cls-1" d="M327.02,174.45c6.36,0,11.14-3.24,14.35-9.7h15.87c-1.66,6.88-5.27,12.41-10.83,16.61-5.56,4.2-11.96,6.29-19.21,6.29-8.74,0-16.13-2.94-22.19-8.83-6.06-5.89-9.09-13.08-9.09-21.59s3-15.59,9-21.42c6-5.83,13.37-8.74,22.1-8.74,11.53,0,20.32,4.69,26.38,14.08,2.08,3.21,3.36,6.29,3.83,9.27h-15.87c-1.19-3.12-3.08-5.59-5.66-7.41-2.58-1.82-5.51-2.73-8.78-2.73-4.52,0-8.29,1.62-11.32,4.87-3.03,3.25-4.55,7.28-4.55,12.09s1.53,8.96,4.59,12.27c3.06,3.31,6.85,4.96,11.36,4.96"/>
                <polygon class="cls-1" points="376.39 187.65 361.24 187.65 361.24 127.06 376.39 127.06 376.39 154.41 393.33 127.06 409.28 127.06 389.49 157.31 410.53 187.65 392.7 187.65 376.39 161.49 376.39 187.65"/>
                <polygon class="cls-1" points="447.24 187.65 414.53 187.65 414.53 127.06 429.68 127.06 429.68 173.93 447.24 173.93 447.24 187.65"/>
                <polygon class="cls-1" points="484.22 187.65 451.24 187.65 451.24 127.06 484.22 127.06 484.22 140.78 465.77 140.78 465.77 150.04 483.69 150.04 483.69 163.76 465.77 163.76 465.77 173.93 484.22 173.93 484.22 187.65"/>
                <path class="cls-1" d="M529.33,174.45c6.36,0,11.14-3.23,14.35-9.7h15.87c-1.66,6.88-5.27,12.41-10.83,16.61-5.56,4.2-11.96,6.3-19.21,6.3-8.73,0-16.13-2.94-22.19-8.83-6.06-5.89-9.09-13.08-9.09-21.59s3-15.59,9-21.42c6-5.83,13.37-8.74,22.1-8.74,11.53,0,20.32,4.69,26.38,14.08,2.08,3.21,3.36,6.29,3.83,9.27h-15.87c-1.19-3.12-3.07-5.59-5.66-7.41-2.58-1.82-5.51-2.73-8.78-2.73-4.52,0-8.29,1.62-11.32,4.87-3.03,3.25-4.55,7.28-4.55,12.09s1.53,8.96,4.59,12.27c3.06,3.31,6.85,4.96,11.36,4.96"/>
                <polygon class="cls-1" points="596.52 187.65 563.54 187.65 563.54 127.06 596.52 127.06 596.52 140.78 578.07 140.78 578.07 150.04 595.99 150.04 595.99 163.76 578.07 163.76 578.07 173.93 596.52 173.93 596.52 187.65"/>
                <polygon class="cls-1" points="633.38 187.65 600.67 187.65 600.67 127.06 615.82 127.06 615.82 173.93 633.38 173.93 633.38 187.65"/>
                <polygon class="cls-1" points="669.87 187.65 637.16 187.65 637.16 127.06 652.31 127.06 652.31 173.93 669.87 173.93 669.87 187.65"/>
                <polygon class="cls-1" points="698.68 187.65 683.87 187.65 683.87 127.06 716.94 127.06 716.94 140.78 698.68 140.78 698.68 150.86 716.3 150.86 716.3 164.58 698.68 164.58 698.68 187.65"/>
                <path class="cls-1" d="M720.94,163.06v-36h15.44v35.93c0,7.47,2.64,11.21,7.9,11.21,2.84,0,4.84-.83,5.99-2.49,1.15-1.66,1.73-4.57,1.73-8.72v-35.93h15.44v36c0,8.08-2,14.14-5.99,18.18-4.24,4.28-9.96,6.41-17.17,6.41s-13.02-2.11-17.26-6.33c-2.3-2.32-3.89-4.77-4.77-7.35-.88-2.58-1.32-6.22-1.32-10.92"/>
                <polygon class="cls-1" points="786.25 187.65 771.45 187.65 771.45 127.06 784.71 127.06 808.33 165.21 807.69 127.06 822.5 127.06 822.5 187.65 809.05 187.65 785.62 150.86 786.25 187.65"/>
                <path class="cls-1" d="M850.29,187.65h-23.8v-60.59h20.35c8.05,0,14.41,1.45,19.08,4.36,2.85,1.76,5.3,4.09,7.36,6.99,3.69,5.15,5.54,11.39,5.54,18.71,0,9.21-2.6,16.59-7.81,22.16-5.21,5.57-12.11,8.36-20.71,8.36M841.94,140.78v33.16h6.63c9.87,0,14.81-5.45,14.81-16.35,0-5.36-1.27-9.5-3.82-12.42-2.54-2.92-6.18-4.38-10.9-4.38h-6.72Z"/>
            </g>
            <g>
                <path class="cls-1" d="M85,84.59c7.39,8.37-26.61,47.56-51.31,59.88-12.97,6.47-29.78,1.88-32.73-11-2.95-12.88-.27-36.48,26.03-52.18,23.51-14.04,49.07-6.83,58.02,3.3"/>
                <path class="cls-1" d="M154.38,118.76c14.14,43.7-86.48,89.01-106.78,89.35-9.54.16-3.83,19.48,13.73,25.43,50.38,17.09,163.35-44.11,134.43-124.88-9.95-27.8-45.28-45.82-72.96-28.23-13.83,8.79,19.78,1.84,31.58,38.32"/>
                <path class="cls-1" d="M137.01,36.8C137.01,16.47,120.53,0,100.21,0s-36.8,16.47-36.8,36.8,16.48,36.8,36.8,36.8,36.8-16.47,36.8-36.8"/>
                <path class="cls-1" d="M119.29,147.59c.06-.06.92-.83,1.75-1.67,1.41-1.4,3.24-3.21,3.24-3.2,1.47-1.48,3.07-3.54,4.6-5.21,3.28-3.61,9.31-10.26,12.2-13.14,1.25-1.41,2.24-2.59,2.79-3.61,1.1-2.01-.36-3.57-1.8-4.26-1.05-.5-2.28-.03-3.09.83,0,0-.79.87-2.08,2.28-2.85,2.78-9.41,9.33-12.65,12.6-.86.87-1.71,1.74-2.55,2.59-.01,0-4.91,5-5.55,5.66-.02.02-.13.14-.29.31-.88.89-3.34,2.65-3.88,1.22-.32-.83.79-1.7,1.05-2.03.08-.09.38-.38.83-.83.03.01.76-.89.79-.88.73-.73,1.84-1.84,3.17-3.16.03.03,3.57-3.38,5.62-5.43,4.03-4.05,17.07-19.72,17.57-20.63.98-1.79-.32-3.18-1.61-3.8-.93-.45-2.03-.03-2.75.74l-7.61,7.17c-3.21,3.23-6.97,7.08-10.63,10.84-1.32,1.36-2.63,2.69-3.89,3.98-.01,0-4.77,4.84-7.01,6.69-.66.53-1.19.87-1.47.83-.04,0-2.08,0-.77-1.68.38-.49,3.05-3.36,6.51-7.02,0,0,15.66-19.73,16.16-20.64.98-1.79-.32-3.18-1.61-3.8-.93-.45-2.03-.03-2.75.74,0,0-.92,1-2.07,2.26h0c-2.42,2.5-8.2,8.5-11.49,11.99-2.27,2.41-6.68,7.38-6.67,7.4-4.1,4.48-7.05,9.79-9.4,7.73-1.93-1.7,4.17-10.34,6.77-14.23,2.03-3.04,2.68-4.49,3.03-5.22,1.25-2.65,1.82-5.34,1.29-6.61-.77-1.84-2.32-3.46-8.58,2.79-.54.53-1.2,1.35-2.01,2.26-4.38,4.87-12.54,13.93-16.3,20.9-1.22,2.27-1.44,4.82-1.66,7.28-.16,1.84-.31,3.59-.84,5.22-1.88,5.76-5.79,8.9-10.71,12.41-6.39,4.56-14.28,7.5-22.24,8.28-8.41.82-16.38-.73-23.07-4.5-.31-.18-.99-.64-1.77-1.17-1.71-1.17-4.3-2.94-6.7-4.21-3.24-1.72-5.22-1.93-6.54-1.17-10.45,5.98,7,43.88,30.43,46.86,1.14.15,2.32.22,3.56.22,12.27,0,29.78-4.19,58.21-24.11,15.62-10.94,35.67-31.41,35.65-31.43,1.31-1.46,2.53-2.85,3.64-4.14,3.11-3.72,5.77-6.21,6.8-8.11.98-1.79-.32-3.18-1.61-3.8-.93-.45-2.03-.03-2.75.74,0,0-3.6,3.96-7.83,8.53-1.55,1.67-10.79,11.22-11.28,11.27-.91.09-1.37-.46-1.22-1.33.08-.44.38-.88,1.06-1.56"/>
            </g>
        </g>
    </g>
</svg>
