<svg width="88" height="104" viewBox="0 0 88 104" fill="none" xmlns="http://www.w3.org/2000/svg">
<path d="M37.3175 37.2107C40.5622 40.8927 25.6336 58.1322 14.7884 63.5517C9.09353 66.3978 1.71263 64.3787 0.417351 58.7128C-0.877929 53.047 0.298801 42.6654 11.8466 35.7591C22.1693 29.583 33.3921 32.7546 37.3219 37.2107" fill="#F48E12"/>
<path d="M67.7806 52.2419C73.9892 71.4653 29.8092 91.397 20.8959 91.5466C16.7071 91.6169 19.2142 100.116 26.9244 102.733C49.0452 110.251 98.6478 83.3293 85.9497 47.799C81.5808 35.5699 66.0682 27.643 53.9145 35.3807C47.8421 39.2474 62.5995 36.1902 67.7806 52.2375" fill="#F48E12"/>
<path d="M60.154 16.1881C60.154 7.24507 52.918 0 43.996 0C35.0739 0 27.8379 7.24507 27.8379 16.1881C27.8379 25.1312 35.0739 32.3763 43.996 32.3763C52.918 32.3763 60.154 25.1312 60.154 16.1881Z" fill="#F48E12"/>
<path d="M52.3735 64.9242C52.3998 64.8978 52.7775 64.5591 53.1419 64.1895C53.761 63.5737 54.5645 62.7775 54.5645 62.7819C55.2099 62.1308 55.9125 61.2247 56.5843 60.49C58.0244 58.902 60.6721 55.9767 61.941 54.7098C62.4899 54.0896 62.9245 53.5705 63.166 53.1218C63.649 52.2376 63.008 51.5514 62.3757 51.2478C61.9147 51.0279 61.3746 51.2346 61.0189 51.6129C61.0189 51.6129 60.6721 51.9957 60.1057 52.6159C58.8543 53.8388 55.9739 56.7201 54.5513 58.1586C54.1737 58.5413 53.8005 58.924 53.4317 59.2979C53.4273 59.2979 51.2758 61.4974 50.9948 61.7877C50.986 61.7965 50.9377 61.8493 50.8675 61.9241C50.4811 62.3156 49.4009 63.0898 49.1638 62.4608C49.0233 62.0956 49.5107 61.7129 49.6249 61.5678C49.66 61.5282 49.7917 61.4006 49.9893 61.2027C50.0025 61.2071 50.323 60.8112 50.3362 60.8156C50.6567 60.4944 51.1441 60.0061 51.7281 59.4255C51.7412 59.4387 53.2956 57.9386 54.1957 57.0369C55.9652 55.2553 61.6907 48.3621 61.9103 47.9618C62.3406 47.1744 61.7698 46.563 61.2034 46.2902C60.795 46.0923 60.312 46.277 59.9959 46.6157L56.6545 49.7698C55.2451 51.1906 53.5941 52.8842 51.9871 54.5382C51.4075 55.1365 50.8323 55.7216 50.2791 56.289C50.2747 56.289 48.1847 58.4181 47.2012 59.2319C46.9114 59.4651 46.6787 59.6146 46.5557 59.597C46.5382 59.597 45.6424 59.597 46.2176 58.858C46.3845 58.6425 47.5568 57.38 49.076 55.77C49.076 55.77 55.952 47.0908 56.1715 46.6905C56.6018 45.9031 56.031 45.2917 55.4646 45.0189C55.0563 44.821 54.5733 45.0057 54.2571 45.3444C54.2571 45.3444 53.8532 45.7843 53.3483 46.3386C52.2857 47.4383 49.7478 50.0777 48.3032 51.6129C47.3065 52.6731 45.3702 54.8594 45.3746 54.8682C43.5744 56.8389 42.2791 59.1747 41.2473 58.2686C40.3998 57.5207 43.0782 53.72 44.2198 52.0089C45.1112 50.6716 45.3966 50.0337 45.5502 49.7126C46.0991 48.5469 46.3494 47.3636 46.1166 46.8049C45.7786 45.9955 45.098 45.2829 42.3494 48.0322C42.1123 48.2653 41.8225 48.6261 41.4668 49.0264C39.5436 51.1687 35.9608 55.1541 34.3098 58.2202C33.7742 59.2187 33.6776 60.3405 33.581 61.4226C33.5107 62.232 33.4449 63.0018 33.2121 63.7189C32.3867 66.2527 30.6699 67.6339 28.5096 69.178C25.7039 71.1839 22.2396 72.4772 18.7445 72.8203C15.0519 73.181 11.5524 72.4992 8.61499 70.8408C8.47888 70.7616 8.18031 70.5592 7.83783 70.3261C7.087 69.8114 5.94979 69.0328 4.896 68.4741C3.47339 67.7175 2.60402 67.6251 2.02443 67.9595C-2.56393 70.59 5.09798 87.2621 15.3856 88.5729C15.8861 88.6389 16.4042 88.6697 16.9487 88.6697C22.3362 88.6697 30.0244 86.8266 42.5074 78.0638C49.3658 73.2514 58.1693 64.2467 58.1605 64.2379C58.7357 63.5957 59.2714 62.9842 59.7588 62.4168C61.1243 60.7804 62.2923 59.685 62.7445 58.8492C63.1748 58.0618 62.604 57.4504 62.0376 57.1776C61.6293 56.9797 61.1463 57.1644 60.8301 57.5031C60.8301 57.5031 59.2495 59.2451 57.3922 61.2554C56.7116 61.9901 52.6545 66.1911 52.4394 66.2131C52.0398 66.2527 51.8378 66.0107 51.9037 65.628C51.9388 65.4345 52.0705 65.2409 52.3691 64.9418" fill="#F48E12"/>
</svg>
