<?xml version="1.0" encoding="UTF-8"?>
<svg id="Layer_2" xmlns="http://www.w3.org/2000/svg" viewBox="0 0 200.42 236.42">
  <defs>
    <style>
      .cls-1 {
        fill: #fff;
      }
    </style>
  </defs>
  <g id="Layer_1-2" data-name="Layer_1">
    <g>
      <path class="cls-1" d="M85,84.59c7.39,8.37-26.61,47.56-51.31,59.88-12.97,6.47-29.78,1.88-32.73-11-2.95-12.88-.27-36.48,26.03-52.18,23.51-14.04,49.07-6.83,58.02,3.3"/>
      <path class="cls-1" d="M154.38,118.76c14.14,43.7-86.48,89.01-106.78,89.35-9.54.16-3.83,19.48,13.73,25.43,50.38,17.09,163.35-44.11,134.43-124.88-9.95-27.8-45.28-45.82-72.96-28.23-13.83,8.79,19.78,1.84,31.58,38.32"/>
      <path class="cls-1" d="M137.01,36.8C137.01,16.47,120.53,0,100.21,0s-36.8,16.47-36.8,36.8,16.48,36.8,36.8,36.8,36.8-16.47,36.8-36.8"/>
      <path class="cls-1" d="M119.29,147.59c.06-.06.92-.83,1.75-1.67,1.41-1.4,3.24-3.21,3.24-3.2,1.47-1.48,3.07-3.54,4.6-5.21,3.28-3.61,9.31-10.26,12.2-13.14,1.25-1.41,2.24-2.59,2.79-3.61,1.1-2.01-.36-3.57-1.8-4.26-1.05-.5-2.28-.03-3.09.83,0,0-.79.87-2.08,2.28-2.85,2.78-9.41,9.33-12.65,12.6-.86.87-1.71,1.74-2.55,2.59-.01,0-4.91,5-5.55,5.66-.02.02-.13.14-.29.31-.88.89-3.34,2.65-3.88,1.22-.32-.83.79-1.7,1.05-2.03.08-.09.38-.38.83-.83.03.01.76-.89.79-.88.73-.73,1.84-1.84,3.17-3.16.03.03,3.57-3.38,5.62-5.43,4.03-4.05,17.07-19.72,17.57-20.63.98-1.79-.32-3.18-1.61-3.8-.93-.45-2.03-.03-2.75.74l-7.61,7.17c-3.21,3.23-6.97,7.08-10.63,10.84-1.32,1.36-2.63,2.69-3.89,3.98-.01,0-4.77,4.84-7.01,6.69-.66.53-1.19.87-1.47.83-.04,0-2.08,0-.77-1.68.38-.49,3.05-3.36,6.51-7.02,0,0,15.66-19.73,16.16-20.64.98-1.79-.32-3.18-1.61-3.8-.93-.45-2.03-.03-2.75.74,0,0-.92,1-2.07,2.26h0c-2.42,2.5-8.2,8.5-11.49,11.99-2.27,2.41-6.68,7.38-6.67,7.4-4.1,4.48-7.05,9.79-9.4,7.73-1.93-1.7,4.17-10.34,6.77-14.23,2.03-3.04,2.68-4.49,3.03-5.22,1.25-2.65,1.82-5.34,1.29-6.61-.77-1.84-2.32-3.46-8.58,2.79-.54.53-1.2,1.35-2.01,2.26-4.38,4.87-12.54,13.93-16.3,20.9-1.22,2.27-1.44,4.82-1.66,7.28-.16,1.84-.31,3.59-.84,5.22-1.88,5.76-5.79,8.9-10.71,12.41-6.39,4.56-14.28,7.5-22.24,8.28-8.41.82-16.38-.73-23.07-4.5-.31-.18-.99-.64-1.77-1.17-1.71-1.17-4.3-2.94-6.7-4.21-3.24-1.72-5.22-1.93-6.54-1.17-10.45,5.98,7,43.88,30.43,46.86,1.14.15,2.32.22,3.56.22,12.27,0,29.78-4.19,58.21-24.11,15.62-10.94,35.67-31.41,35.65-31.43,1.31-1.46,2.53-2.85,3.64-4.14,3.11-3.72,5.77-6.21,6.8-8.11.98-1.79-.32-3.18-1.61-3.8-.93-.45-2.03-.03-2.75.74,0,0-3.6,3.96-7.83,8.53-1.55,1.67-10.79,11.22-11.28,11.27-.91.09-1.37-.46-1.22-1.33.08-.44.38-.88,1.06-1.56"/>
    </g>
  </g>
</svg>